<?xml version="1.0" encoding="UTF-8" standalone="no"?>
<!-- Created with Inkscape (http://www.inkscape.org/) -->

<svg
   xmlns:dc="http://purl.org/dc/elements/1.1/"
   xmlns:cc="http://creativecommons.org/ns#"
   xmlns:rdf="http://www.w3.org/1999/02/22-rdf-syntax-ns#"
   xmlns:svg="http://www.w3.org/2000/svg"
   xmlns="http://www.w3.org/2000/svg"
   xmlns:sodipodi="http://sodipodi.sourceforge.net/DTD/sodipodi-0.dtd"
   xmlns:inkscape="http://www.inkscape.org/namespaces/inkscape"
   height="16"
   width="16"
   version="1.1"
   id="svg2125"
   sodipodi:docname="power-management-inhibited-by-applet-symbolic.svg"
   inkscape:version="0.92.3 (2405546, 2018-03-11)">
  <metadata
     id="metadata2131">
    <rdf:RDF>
      <cc:Work
         rdf:about="">
        <dc:format>image/svg+xml</dc:format>
        <dc:type
           rdf:resource="http://purl.org/dc/dcmitype/StillImage" />
        <dc:title>Gnome Symbolic Icon Theme</dc:title>
      </cc:Work>
    </rdf:RDF>
  </metadata>
  <defs
     id="defs2129" />
  <sodipodi:namedview
     pagecolor="#ffffff"
     bordercolor="#666666"
     borderopacity="1"
     objecttolerance="10"
     gridtolerance="10"
     guidetolerance="10"
     inkscape:pageopacity="0"
     inkscape:pageshadow="2"
     inkscape:window-width="1366"
     inkscape:window-height="718"
     id="namedview2127"
     showgrid="false"
     inkscape:zoom="11.799844"
     inkscape:cx="-2.6103226"
     inkscape:cy="8"
     inkscape:window-x="0"
     inkscape:window-y="0"
     inkscape:window-maximized="1"
     inkscape:current-layer="svg2125" />
  <title
     id="title2111">Gnome Symbolic Icon Theme</title>
  <path
     style="fill:#bebebe"
     d="M 2 0.001953125 C 0.9093 0.001953125 0 0.91125312 0 2.0019531 L 0 11.001953 C 0 12.092653 0.9093 13.001953 2 13.001953 L 7.1054688 13.001953 A 5 5 0 0 1 7 12 A 5 5 0 0 1 7.1015625 11.001953 L 2 11.001953 L 2 2.0019531 L 14 2.0019531 L 14 7.4199219 A 5 5 0 0 1 16 9.0097656 L 16 2.0019531 C 16 0.91115313 15.091 0.001953125 14 0.001953125 L 2 0.001953125 z "
     id="path2119" />
  <path
     style="fill:#bebebe"
     d="M 5 14.001953 C 4.45465 14.001953 4 14.456603 4 15.001953 L 4 15.501953 L 4.2089844 15.501953 C 4.3876644 15.782323 4.64844 16.001953 5 16.001953 L 9.0136719 16.001953 A 5 5 0 0 1 7.4257812 14.001953 L 5 14.001953 z "
     id="path2121" />
  <path
     style="color:#bebebe;fill:#bebebe;stroke-width:0.75818312"
     d="M 9.9140625 2.7109375 C 10.383894 3.2802421 10.667969 4.0088985 10.667969 4.8046875 C 10.667969 6.6235688 9.1939571 8.0976562 7.375 8.0976562 C 6.579211 8.0976562 5.8525229 7.8116277 5.2832031 7.3417969 C 5.5579787 8.5130393 6.3740201 9.4609553 7.4472656 9.9433594 A 5 5 0 0 1 12 7 A 5 5 0 0 1 12.802734 7.0703125 C 12.835863 6.8673383 12.865234 6.6635124 12.865234 6.4511719 C 12.865234 4.6322148 11.61156 3.1091353 9.9140625 2.7109375 z "
     id="path5549" />
  <path
     style="color:#000000;fill:#bebebe;stroke-width:0.75818312"
     d="M 4.6474136,7.2626272 4.0825066,5.552999 2.3728796,4.9880926 4.0825066,4.423185 4.6474136,2.7135581 5.2123206,4.423185 6.9219477,4.9880926 5.2123206,5.552999 Z"
     id="path11638"
     inkscape:connector-curvature="0" />
  <rect
     style="color:#bebebe;fill:#bebebe"
     ry="0.69887"
     rx="0.69887"
     height="1.3977"
     width="1.3977"
     y="3.1872034"
     x="7.5145965"
     id="rect5597" />
  <path
     inkscape:connector-curvature="0"
     style="display:inline;fill:#ef2929;stroke-width:1.14285719"
     d="M 12,8.0000002 A 4,4 0 0 0 8,12 4,4 0 0 0 12,16 4,4 0 0 0 16,12 4,4 0 0 0 12,8.0000002 Z M 9.142857,11.428571 h 5.714286 v 1.142858 H 9.142857 Z"
     class="error"
     id="path943" />
</svg>
